<svg version="1.1" xmlns="http://www.w3.org/2000/svg" viewBox="0 0 128 128">
  <defs>
    <clipPath id="se-128x128-clip" clipPathUnits="objectBoundingBox">
      <path d="M1,0.5 L1,0.555 L1,0.578 L1,0.596 L1,0.611 L1,0.624 L0.999,0.636 L0.999,0.646 L0.999,0.657 L0.998,0.666 L0.998,0.675 L0.998,0.683 L0.997,0.692 L0.997,0.699 L0.996,0.707 L0.996,0.714 L0.995,0.721 L0.995,0.728 L0.994,0.734 L0.993,0.74 L0.992,0.746 L0.992,0.752 L0.991,0.758 L0.99,0.764 L0.989,0.769 L0.988,0.775 L0.987,0.78 L0.986,0.785 L0.985,0.79 L0.984,0.795 L0.983,0.8 L0.982,0.805 L0.981,0.809 L0.979,0.814 L0.978,0.818 L0.977,0.823 L0.975,0.827 L0.974,0.831 L0.973,0.835 L0.971,0.839 L0.97,0.843 L0.968,0.847 L0.966,0.851 L0.965,0.855 L0.963,0.859 L0.961,0.862 L0.96,0.866 L0.958,0.869 L0.956,0.873 L0.954,0.876 L0.952,0.879 L0.95,0.883 L0.948,0.886 L0.946,0.889 L0.944,0.892 L0.942,0.895 L0.94,0.898 L0.937,0.901 L0.935,0.904 L0.933,0.907 L0.93,0.91 L0.928,0.912 L0.926,0.915 L0.923,0.918 L0.92,0.92 L0.918,0.923 L0.915,0.926 L0.912,0.928 L0.91,0.93 L0.907,0.933 L0.904,0.935 L0.901,0.937 L0.898,0.94 L0.895,0.942 L0.892,0.944 L0.889,0.946 L0.886,0.948 L0.883,0.95 L0.879,0.952 L0.876,0.954 L0.873,0.956 L0.869,0.958 L0.866,0.96 L0.862,0.961 L0.859,0.963 L0.855,0.965 L0.851,0.966 L0.847,0.968 L0.843,0.97 L0.839,0.971 L0.835,0.973 L0.831,0.974 L0.827,0.975 L0.823,0.977 L0.818,0.978 L0.814,0.979 L0.809,0.981 L0.805,0.982 L0.8,0.983 L0.795,0.984 L0.79,0.985 L0.785,0.986 L0.78,0.987 L0.775,0.988 L0.769,0.989 L0.764,0.99 L0.758,0.991 L0.752,0.992 L0.746,0.992 L0.74,0.993 L0.734,0.994 L0.728,0.995 L0.721,0.995 L0.714,0.996 L0.707,0.996 L0.699,0.997 L0.692,0.997 L0.683,0.998 L0.675,0.998 L0.666,0.998 L0.657,0.999 L0.646,0.999 L0.636,0.999 L0.624,1 L0.611,1 L0.596,1 L0.578,1 L0.555,1 L0.5,1 L0.445,1 L0.422,1 L0.404,1 L0.389,1 L0.376,1 L0.364,0.999 L0.354,0.999 L0.343,0.999 L0.334,0.998 L0.325,0.998 L0.317,0.998 L0.308,0.997 L0.301,0.997 L0.293,0.996 L0.286,0.996 L0.279,0.995 L0.272,0.995 L0.266,0.994 L0.26,0.993 L0.254,0.992 L0.248,0.992 L0.242,0.991 L0.236,0.99 L0.231,0.989 L0.225,0.988 L0.22,0.987 L0.215,0.986 L0.21,0.985 L0.205,0.984 L0.2,0.983 L0.195,0.982 L0.191,0.981 L0.186,0.979 L0.182,0.978 L0.177,0.977 L0.173,0.975 L0.169,0.974 L0.165,0.973 L0.161,0.971 L0.157,0.97 L0.153,0.968 L0.149,0.966 L0.145,0.965 L0.141,0.963 L0.138,0.961 L0.134,0.96 L0.131,0.958 L0.127,0.956 L0.124,0.954 L0.121,0.952 L0.117,0.95 L0.114,0.948 L0.111,0.946 L0.108,0.944 L0.105,0.942 L0.102,0.94 L0.099,0.937 L0.096,0.935 L0.093,0.933 L0.09,0.93 L0.088,0.928 L0.085,0.926 L0.082,0.923 L0.08,0.92 L0.077,0.918 L0.074,0.915 L0.072,0.912 L0.07,0.91 L0.067,0.907 L0.065,0.904 L0.063,0.901 L0.06,0.898 L0.058,0.895 L0.056,0.892 L0.054,0.889 L0.052,0.886 L0.05,0.883 L0.048,0.879 L0.046,0.876 L0.044,0.873 L0.042,0.869 L0.04,0.866 L0.039,0.862 L0.037,0.859 L0.035,0.855 L0.034,0.851 L0.032,0.847 L0.03,0.843 L0.029,0.839 L0.027,0.835 L0.026,0.831 L0.025,0.827 L0.023,0.823 L0.022,0.818 L0.021,0.814 L0.019,0.809 L0.018,0.805 L0.017,0.8 L0.016,0.795 L0.015,0.79 L0.014,0.785 L0.013,0.78 L0.012,0.775 L0.011,0.769 L0.01,0.764 L0.009,0.758 L0.008,0.752 L0.008,0.746 L0.007,0.74 L0.006,0.734 L0.005,0.728 L0.005,0.721 L0.004,0.714 L0.004,0.707 L0.003,0.699 L0.003,0.692 L0.002,0.683 L0.002,0.675 L0.002,0.666 L0.001,0.657 L0.001,0.646 L0.001,0.636 L0,0.624 L0,0.611 L0,0.596 L0,0.578 L0,0.555 L0,0.5 L0,0.445 L0,0.422 L0,0.404 L0,0.389 L0,0.376 L0.001,0.364 L0.001,0.354 L0.001,0.343 L0.002,0.334 L0.002,0.325 L0.002,0.317 L0.003,0.308 L0.003,0.301 L0.004,0.293 L0.004,0.286 L0.005,0.279 L0.005,0.272 L0.006,0.266 L0.007,0.26 L0.008,0.254 L0.008,0.248 L0.009,0.242 L0.01,0.236 L0.011,0.231 L0.012,0.225 L0.013,0.22 L0.014,0.215 L0.015,0.21 L0.016,0.205 L0.017,0.2 L0.018,0.195 L0.019,0.191 L0.021,0.186 L0.022,0.182 L0.023,0.177 L0.025,0.173 L0.026,0.169 L0.027,0.165 L0.029,0.161 L0.03,0.157 L0.032,0.153 L0.034,0.149 L0.035,0.145 L0.037,0.141 L0.039,0.138 L0.04,0.134 L0.042,0.131 L0.044,0.127 L0.046,0.124 L0.048,0.121 L0.05,0.117 L0.052,0.114 L0.054,0.111 L0.056,0.108 L0.058,0.105 L0.06,0.102 L0.063,0.099 L0.065,0.096 L0.067,0.093 L0.07,0.09 L0.072,0.088 L0.074,0.085 L0.077,0.082 L0.08,0.08 L0.082,0.077 L0.085,0.074 L0.088,0.072 L0.09,0.07 L0.093,0.067 L0.096,0.065 L0.099,0.063 L0.102,0.06 L0.105,0.058 L0.108,0.056 L0.111,0.054 L0.114,0.052 L0.117,0.05 L0.121,0.048 L0.124,0.046 L0.127,0.044 L0.131,0.042 L0.134,0.04 L0.138,0.039 L0.141,0.037 L0.145,0.035 L0.149,0.034 L0.153,0.032 L0.157,0.03 L0.161,0.029 L0.165,0.027 L0.169,0.026 L0.173,0.025 L0.177,0.023 L0.182,0.022 L0.186,0.021 L0.191,0.019 L0.195,0.018 L0.2,0.017 L0.205,0.016 L0.21,0.015 L0.215,0.014 L0.22,0.013 L0.225,0.012 L0.231,0.011 L0.236,0.01 L0.242,0.009 L0.248,0.008 L0.254,0.008 L0.26,0.007 L0.266,0.006 L0.272,0.005 L0.279,0.005 L0.286,0.004 L0.293,0.004 L0.301,0.003 L0.308,0.003 L0.317,0.002 L0.325,0.002 L0.334,0.002 L0.343,0.001 L0.354,0.001 L0.364,0.001 L0.376,0 L0.389,0 L0.404,0 L0.422,0 L0.445,0 L0.5,0 L0.555,0 L0.578,0 L0.596,0 L0.611,0 L0.624,0 L0.636,0.001 L0.646,0.001 L0.657,0.001 L0.666,0.002 L0.675,0.002 L0.683,0.002 L0.692,0.003 L0.699,0.003 L0.707,0.004 L0.714,0.004 L0.721,0.005 L0.728,0.005 L0.734,0.006 L0.74,0.007 L0.746,0.008 L0.752,0.008 L0.758,0.009 L0.764,0.01 L0.769,0.011 L0.775,0.012 L0.78,0.013 L0.785,0.014 L0.79,0.015 L0.795,0.016 L0.8,0.017 L0.805,0.018 L0.809,0.019 L0.814,0.021 L0.818,0.022 L0.823,0.023 L0.827,0.025 L0.831,0.026 L0.835,0.027 L0.839,0.029 L0.843,0.03 L0.847,0.032 L0.851,0.034 L0.855,0.035 L0.859,0.037 L0.862,0.039 L0.866,0.04 L0.869,0.042 L0.873,0.044 L0.876,0.046 L0.879,0.048 L0.883,0.05 L0.886,0.052 L0.889,0.054 L0.892,0.056 L0.895,0.058 L0.898,0.06 L0.901,0.063 L0.904,0.065 L0.907,0.067 L0.91,0.07 L0.912,0.072 L0.915,0.074 L0.918,0.077 L0.92,0.08 L0.923,0.082 L0.926,0.085 L0.928,0.088 L0.93,0.09 L0.933,0.093 L0.935,0.096 L0.937,0.099 L0.94,0.102 L0.942,0.105 L0.944,0.108 L0.946,0.111 L0.948,0.114 L0.95,0.117 L0.952,0.121 L0.954,0.124 L0.956,0.127 L0.958,0.131 L0.96,0.134 L0.961,0.138 L0.963,0.141 L0.965,0.145 L0.966,0.149 L0.968,0.153 L0.97,0.157 L0.971,0.161 L0.973,0.165 L0.974,0.169 L0.975,0.173 L0.977,0.177 L0.978,0.182 L0.979,0.186 L0.981,0.191 L0.982,0.195 L0.983,0.2 L0.984,0.205 L0.985,0.21 L0.986,0.215 L0.987,0.22 L0.988,0.225 L0.989,0.231 L0.99,0.236 L0.991,0.242 L0.992,0.248 L0.992,0.254 L0.993,0.26 L0.994,0.266 L0.995,0.272 L0.995,0.279 L0.996,0.286 L0.996,0.293 L0.997,0.301 L0.997,0.308 L0.998,0.317 L0.998,0.325 L0.998,0.334 L0.999,0.343 L0.999,0.354 L0.999,0.364 L1,0.376 L1,0.389 L1,0.404 L1,0.422 L1,0.445 L1,0.5 Z" />
    </clipPath>  
  </defs>
</svg>